<svg width="22" height="22" viewBox="0 0 22 22" fill="none" xmlns="http://www.w3.org/2000/svg">
<path d="M14.96 13.6584L15.9683 14.6667C16.335 14.6484 16.7292 14.7859 17.0133 15.0701L19.7633 17.8201C20.0062 18.0807 20.1384 18.4255 20.1322 18.7817C20.1259 19.1379 19.9816 19.4778 19.7296 19.7297C19.4777 19.9816 19.1379 20.1259 18.7816 20.1322C18.4254 20.1385 18.0807 20.0063 17.82 19.7634L15.07 17.0134C14.9332 16.8773 14.8266 16.7139 14.7571 16.5338C14.6876 16.3538 14.6568 16.1611 14.6667 15.9684L13.6583 14.9601C12.185 16.1046 10.3308 16.6445 8.47334 16.4699C6.61586 16.2954 4.89476 15.4194 3.66048 14.0204C2.4262 12.6213 1.77154 10.8045 1.82981 8.93974C1.88808 7.07499 2.6549 5.30256 3.97412 3.98334C5.29334 2.66411 7.06578 1.8973 8.93053 1.83903C10.7953 1.78076 12.6121 2.43541 14.0111 3.6697C15.4102 4.90398 16.2861 6.62508 16.4607 8.48255C16.6353 10.34 16.0954 12.1942 14.9508 13.6676L14.96 13.6584ZM9.16668 14.6667C10.6254 14.6667 12.0243 14.0873 13.0558 13.0558C14.0872 12.0244 14.6667 10.6254 14.6667 9.16672C14.6667 7.70803 14.0872 6.30909 13.0558 5.27764C12.0243 4.24619 10.6254 3.66672 9.16668 3.66672C7.70798 3.66672 6.30904 4.24619 5.27759 5.27764C4.24614 6.30909 3.66667 7.70803 3.66667 9.16672C3.66667 10.6254 4.24614 12.0244 5.27759 13.0558C6.30904 14.0873 7.70798 14.6667 9.16668 14.6667Z" fill="#AEC0C7"/>
</svg>
